<?xml version="1.0" encoding="utf-8"?>
<!-- Generator: Adobe Illustrator 21.0.2, SVG Export Plug-In . SVG Version: 6.00 Build 0)  -->
<svg version="1.1" id="图层_1" xmlns="http://www.w3.org/2000/svg" xmlns:xlink="http://www.w3.org/1999/xlink" x="0px" y="0px"
	 viewBox="0 0 48 44.9" style="enable-background:new 0 0 48 44.9;" xml:space="preserve">
<style type="text/css">
	.st0{fill:#FD5E0F;}
</style>
<path class="st0" d="M36.9,16.5c-0.1-0.4-0.5-0.7-1-0.7l-3.6,0.3c-0.6-0.7-1.2-1.3-2-1.9l0.3-3.6c0.1-0.5-0.2-0.9-0.7-1l-4.6-1.2
	c-0.4-0.1-0.9,0.1-1.1,0.5l-1.6,3.3c-0.9,0.1-1.8,0.3-2.7,0.7l-3-2.1c-0.4-0.2-0.8-0.2-1.2,0.1l-3.4,3.4c-0.3,0.3-0.4,0.8-0.2,1.2
	l2,3c-0.4,0.9-0.6,1.8-0.7,2.7l-3.2,1.6c-0.4,0.2-0.6,0.7-0.5,1.1l1.2,4.5c0.1,0.4,0.5,0.7,1,0.7l3.6-0.3c0.3,0.4,0.6,0.8,0.9,1.1
	c0.3,0.3,0.6,0.6,1,0.9l-0.2,3.5c0,0.4,0.3,0.8,0.7,0.9l4.5,1.2h0.3c0.3,0,0.7-0.2,0.8-0.5l1.7-3.2c0.9-0.1,1.8-0.3,2.7-0.7l3,2
	c0.4,0.2,0.8,0.2,1.1-0.2l3.4-3.3c0.3-0.3,0.4-0.8,0.1-1.2l-2-3c0.3-0.9,0.6-1.8,0.7-2.7l3.3-1.7c0.4-0.2,0.6-0.6,0.5-1.1L36.9,16.5
	z M19.5,22.5c0-2.5,2.1-4.6,4.6-4.6s4.6,2.1,4.6,4.6s-2.1,4.6-4.6,4.6l0,0C21.6,27.1,19.5,25,19.5,22.5L19.5,22.5z M34,39.5l1.4,2.4
	c-10.7,6.3-24.5,2.7-30.8-8C1,27.6,0.5,20.1,3.4,13.5l-1.7,0.4l0,0c-0.7,0.1-1.5-0.3-1.6-1.1c-0.1-0.7,0.3-1.4,1-1.6l4.7-1.1l0,0
	c0.7-0.2,1.5,0.3,1.6,1l1.1,4.7l0,0c0.1,0.7-0.3,1.5-1.1,1.6c-0.7,0.1-1.4-0.3-1.6-1l-0.2-1C1.7,25.7,6.9,37.1,17.1,40.9
	C22.7,43,28.9,42.5,34,39.5z M46.3,30.9c0.7-0.1,1.5,0.3,1.6,1.1c0.1,0.7-0.3,1.4-1,1.6l-4.7,1.1c-0.7,0.2-1.5-0.3-1.6-1L39.5,29
	c-0.1-0.7,0.3-1.5,1.1-1.6c0.7-0.1,1.4,0.3,1.6,1l0.3,1.2C46.4,19.4,41.4,7.9,31.2,4c-5.7-2.2-12.1-1.7-17.3,1.5l-1.4-2.3
	C23.2-3.2,37,0.3,43.3,11c3.7,6.2,4.2,13.7,1.4,20.4L46.3,30.9L46.3,30.9z"/>
</svg>
